<svg width="129" height="100" viewBox="0 0 129 100" fill="none" xmlns="http://www.w3.org/2000/svg">
<path d="M64.9777 78.0014H71.1675C75.8556 78.0014 80.031 77.2952 83.6936 75.8828C87.3562 74.4703 90.4328 72.5283 92.9233 70.0565C95.4872 67.5847 97.4283 64.654 98.7103 61.2994C100.102 57.839 100.761 54.096 100.761 50.0353C100.761 45.9746 100.065 42.3376 98.7103 38.8771C97.3185 35.4167 95.3773 32.4506 92.7768 29.9788C90.2863 27.5071 87.2097 25.565 83.5471 24.1525C79.8845 22.7401 75.7457 22.0339 71.1675 22.0339H64.9777V78.0014ZM38.021 0H77.9433C85.0121 0 91.6048 1.37712 97.758 4.09605C103.984 6.85028 109.405 10.5226 113.983 15.113C118.671 19.6328 122.334 24.9294 125.008 31.0381C127.681 37.041 129 43.3616 129 50C129 56.6384 127.681 62.8531 125.008 68.9619C122.444 74.9647 118.818 80.2966 114.13 84.887C109.552 89.4774 104.131 93.1497 97.9045 95.904C91.7513 98.6582 85.122 100 77.9433 100H38.021V0Z" fill="#0083F0"/>
<path d="M0 39.7964C0 37.7092 0.398896 35.7611 1.23292 33.9174C2.06695 32.0041 3.19105 30.3344 4.64153 28.9429C6.092 27.5515 7.76005 26.4731 9.68193 25.673C11.6763 24.8729 13.7795 24.4902 15.9553 24.4902C18.131 24.4902 20.1617 24.8729 22.0835 25.673C24.0779 26.4731 25.8185 27.5515 27.269 28.9429C28.7195 30.3344 29.8436 32.0041 30.6776 33.9174C31.5116 35.7611 31.9105 37.7092 31.9105 39.7964C31.9105 41.8836 31.5116 43.9012 30.6776 45.8144C29.8436 47.6581 28.7195 49.2583 27.269 50.6498C25.8185 52.0413 24.0779 53.1196 22.0835 53.9197C20.1617 54.7198 18.131 55.1025 15.9553 55.1025C13.7795 55.1025 11.6763 54.7198 9.68193 53.9197C7.76005 53.1196 6.092 52.0413 4.64153 50.6498C3.19105 49.2583 2.06695 47.6581 1.23292 45.8144C0.398896 43.9012 0 41.8836 0 39.7964Z" fill="#0083F0"/>
<path d="M0 84.3533C0 82.2197 0.398896 80.2284 1.23292 78.3437C2.06695 76.3879 3.19105 74.6811 4.64153 73.2587C6.092 71.8363 7.76005 70.7339 9.68193 69.9161C11.6763 69.0982 13.7795 68.707 15.9553 68.707C18.131 68.707 20.1617 69.0982 22.0835 69.9161C24.0779 70.7339 25.8185 71.8363 27.269 73.2587C28.7195 74.6811 29.8436 76.3879 30.6776 78.3437C31.5116 80.2284 31.9105 82.2197 31.9105 84.3533C31.9105 86.4869 31.5116 88.5493 30.6776 90.5051C29.8436 92.3898 28.7195 94.0255 27.269 95.4479C25.8185 96.8703 24.0779 97.9726 22.0835 98.7905C20.1617 99.6084 18.131 99.9995 15.9553 99.9995C13.7795 99.9995 11.6763 99.6084 9.68193 98.7905C7.76005 97.9726 6.092 96.8703 4.64153 95.4479C3.19105 94.0255 2.06695 92.3898 1.23292 90.5051C0.398896 88.5493 0 86.4869 0 84.3533Z" fill="#0083F0"/>
</svg>
